<svg xmlns="http://www.w3.org/2000/svg" xmlns:xlink="http://www.w3.org/1999/xlink" width="500" zoomAndPan="magnify" viewBox="0 0 375 374.999991" height="500" preserveAspectRatio="xMidYMid meet" version="1.0"><defs><g/><clipPath id="da959a3291"><path d="M 150 120.09375 L 205 120.09375 L 205 162 L 150 162 Z M 150 120.09375 " clip-rule="nonzero"/></clipPath><clipPath id="d60920ec65"><path d="M 167.320312 143.496094 L 224.960938 143.496094 L 224.960938 187.585938 L 167.320312 187.585938 Z M 167.320312 143.496094 " clip-rule="nonzero"/></clipPath></defs><g fill="#272727" fill-opacity="1"><g transform="translate(127.075888, 238.491678)"><g><path d="M 5.484375 -5.5 L 1.953125 -5.5 L 1.953125 -3.75 L 5.109375 -3.75 L 5.109375 -2.765625 L 1.953125 -2.765625 L 1.953125 -0.984375 L 5.59375 -0.984375 L 5.59375 0 L 0.859375 0 L 0.859375 -6.484375 L 5.484375 -6.484375 Z M 5.484375 -5.5 "/></g></g></g><g fill="#272727" fill-opacity="1"><g transform="translate(134.770312, 238.491678)"><g><path d="M 6.484375 0 L 5.40625 0 L 1.953125 -4.65625 L 1.953125 0 L 0.859375 0 L 0.859375 -6.484375 L 1.921875 -6.484375 L 5.40625 -1.828125 L 5.40625 -6.484375 L 6.484375 -6.484375 Z M 6.484375 0 "/></g></g></g><g fill="#272727" fill-opacity="1"><g transform="translate(143.725394, 238.491678)"><g><path d="M 5.296875 -3.1875 L 6.25 -3.1875 L 6.25 -0.796875 C 5.914062 -0.546875 5.519531 -0.34375 5.0625 -0.1875 C 4.601562 -0.03125 4.15625 0.046875 3.71875 0.046875 C 2.757812 0.046875 1.953125 -0.269531 1.296875 -0.90625 C 0.640625 -1.539062 0.3125 -2.320312 0.3125 -3.25 C 0.3125 -4.175781 0.644531 -4.953125 1.3125 -5.578125 C 1.976562 -6.203125 2.804688 -6.515625 3.796875 -6.515625 C 4.242188 -6.515625 4.6875 -6.429688 5.125 -6.265625 C 5.570312 -6.097656 5.957031 -5.878906 6.28125 -5.609375 L 5.65625 -4.796875 C 5.125 -5.296875 4.503906 -5.546875 3.796875 -5.546875 C 3.128906 -5.546875 2.566406 -5.320312 2.109375 -4.875 C 1.648438 -4.425781 1.421875 -3.882812 1.421875 -3.25 C 1.421875 -2.59375 1.648438 -2.039062 2.109375 -1.59375 C 2.578125 -1.15625 3.140625 -0.9375 3.796875 -0.9375 C 4.296875 -0.9375 4.796875 -1.082031 5.296875 -1.375 Z M 5.296875 -3.1875 "/></g></g></g><g fill="#272727" fill-opacity="1"><g transform="translate(152.281879, 238.491678)"><g><path d="M 1.953125 -0.984375 L 4.75 -0.984375 L 4.75 0 L 0.859375 0 L 0.859375 -6.484375 L 1.953125 -6.484375 Z M 1.953125 -0.984375 "/></g></g></g><g fill="#272727" fill-opacity="1"><g transform="translate(158.84542, 238.491678)"><g><path d="M 1.953125 0 L 0.859375 0 L 0.859375 -6.484375 L 1.953125 -6.484375 Z M 1.953125 0 "/></g></g></g><g fill="#272727" fill-opacity="1"><g transform="translate(163.258422, 238.491678)"><g><path d="M 2.984375 -6.53125 C 3.828125 -6.53125 4.582031 -6.304688 5.25 -5.859375 L 4.796875 -4.90625 C 4.140625 -5.300781 3.507812 -5.5 2.90625 -5.5 C 2.570312 -5.5 2.3125 -5.441406 2.125 -5.328125 C 1.9375 -5.210938 1.84375 -5.046875 1.84375 -4.828125 C 1.84375 -4.609375 1.925781 -4.421875 2.09375 -4.265625 C 2.269531 -4.117188 2.488281 -4.007812 2.75 -3.9375 C 3.007812 -3.875 3.289062 -3.785156 3.59375 -3.671875 C 3.894531 -3.566406 4.175781 -3.453125 4.4375 -3.328125 C 4.695312 -3.210938 4.910156 -3.023438 5.078125 -2.765625 C 5.253906 -2.503906 5.34375 -2.191406 5.34375 -1.828125 C 5.34375 -1.265625 5.113281 -0.8125 4.65625 -0.46875 C 4.195312 -0.132812 3.609375 0.03125 2.890625 0.03125 C 2.398438 0.03125 1.921875 -0.0546875 1.453125 -0.234375 C 0.992188 -0.421875 0.585938 -0.671875 0.234375 -0.984375 L 0.71875 -1.9375 C 1.039062 -1.632812 1.394531 -1.398438 1.78125 -1.234375 C 2.175781 -1.066406 2.550781 -0.984375 2.90625 -0.984375 C 3.289062 -0.984375 3.585938 -1.050781 3.796875 -1.1875 C 4.015625 -1.332031 4.125 -1.53125 4.125 -1.78125 C 4.125 -2 4.035156 -2.179688 3.859375 -2.328125 C 3.691406 -2.484375 3.476562 -2.597656 3.21875 -2.671875 C 2.957031 -2.742188 2.675781 -2.828125 2.375 -2.921875 C 2.070312 -3.023438 1.789062 -3.132812 1.53125 -3.25 C 1.269531 -3.363281 1.050781 -3.546875 0.875 -3.796875 C 0.707031 -4.054688 0.625 -4.363281 0.625 -4.71875 C 0.625 -5.269531 0.835938 -5.707031 1.265625 -6.03125 C 1.703125 -6.363281 2.273438 -6.53125 2.984375 -6.53125 Z M 2.984375 -6.53125 "/></g></g></g><g fill="#272727" fill-opacity="1"><g transform="translate(170.637675, 238.491678)"><g><path d="M 6.484375 0 L 5.390625 0 L 5.390625 -2.6875 L 1.953125 -2.6875 L 1.953125 0 L 0.859375 0 L 0.859375 -6.484375 L 1.953125 -6.484375 L 1.953125 -3.671875 L 5.390625 -3.671875 L 5.390625 -6.484375 L 6.484375 -6.484375 Z M 6.484375 0 "/></g></g></g><g fill="#272727" fill-opacity="1"><g transform="translate(179.583489, 238.491678)"><g/></g></g><g fill="#272727" fill-opacity="1"><g transform="translate(183.588635, 238.491678)"><g><path d="M 1.953125 -0.984375 L 4.75 -0.984375 L 4.75 0 L 0.859375 0 L 0.859375 -6.484375 L 1.953125 -6.484375 Z M 1.953125 -0.984375 "/></g></g></g><g fill="#272727" fill-opacity="1"><g transform="translate(190.152176, 238.491678)"><g><path d="M 5.046875 -1.46875 L 1.765625 -1.46875 L 1.15625 0 L 0.015625 0 L 2.875 -6.484375 L 4 -6.484375 L 6.828125 0 L 5.65625 0 Z M 4.625 -2.4375 L 3.40625 -5.3125 L 2.171875 -2.4375 Z M 4.625 -2.4375 "/></g></g></g><g fill="#272727" fill-opacity="1"><g transform="translate(198.606692, 238.491678)"><g><path d="M 6.484375 0 L 5.40625 0 L 1.953125 -4.65625 L 1.953125 0 L 0.859375 0 L 0.859375 -6.484375 L 1.921875 -6.484375 L 5.40625 -1.828125 L 5.40625 -6.484375 L 6.484375 -6.484375 Z M 6.484375 0 "/></g></g></g><g fill="#272727" fill-opacity="1"><g transform="translate(207.561774, 238.491678)"><g><path d="M 5.296875 -3.1875 L 6.25 -3.1875 L 6.25 -0.796875 C 5.914062 -0.546875 5.519531 -0.34375 5.0625 -0.1875 C 4.601562 -0.03125 4.15625 0.046875 3.71875 0.046875 C 2.757812 0.046875 1.953125 -0.269531 1.296875 -0.90625 C 0.640625 -1.539062 0.3125 -2.320312 0.3125 -3.25 C 0.3125 -4.175781 0.644531 -4.953125 1.3125 -5.578125 C 1.976562 -6.203125 2.804688 -6.515625 3.796875 -6.515625 C 4.242188 -6.515625 4.6875 -6.429688 5.125 -6.265625 C 5.570312 -6.097656 5.957031 -5.878906 6.28125 -5.609375 L 5.65625 -4.796875 C 5.125 -5.296875 4.503906 -5.546875 3.796875 -5.546875 C 3.128906 -5.546875 2.566406 -5.320312 2.109375 -4.875 C 1.648438 -4.425781 1.421875 -3.882812 1.421875 -3.25 C 1.421875 -2.59375 1.648438 -2.039062 2.109375 -1.59375 C 2.578125 -1.15625 3.140625 -0.9375 3.796875 -0.9375 C 4.296875 -0.9375 4.796875 -1.082031 5.296875 -1.375 Z M 5.296875 -3.1875 "/></g></g></g><g fill="#272727" fill-opacity="1"><g transform="translate(216.118258, 238.491678)"><g><path d="M 6.359375 -6.484375 L 6.359375 -2.6875 C 6.359375 -1.84375 6.109375 -1.175781 5.609375 -0.6875 C 5.109375 -0.195312 4.421875 0.046875 3.546875 0.046875 C 2.671875 0.046875 1.976562 -0.195312 1.46875 -0.6875 C 0.96875 -1.175781 0.71875 -1.84375 0.71875 -2.6875 L 0.71875 -6.484375 L 1.8125 -6.484375 L 1.8125 -2.6875 C 1.8125 -2.144531 1.96875 -1.71875 2.28125 -1.40625 C 2.59375 -1.09375 3.019531 -0.9375 3.5625 -0.9375 C 4.09375 -0.9375 4.507812 -1.085938 4.8125 -1.390625 C 5.113281 -1.703125 5.265625 -2.132812 5.265625 -2.6875 L 5.265625 -6.484375 Z M 6.359375 -6.484375 "/></g></g></g><g fill="#272727" fill-opacity="1"><g transform="translate(224.813793, 238.491678)"><g><path d="M 5.046875 -1.46875 L 1.765625 -1.46875 L 1.15625 0 L 0.015625 0 L 2.875 -6.484375 L 4 -6.484375 L 6.828125 0 L 5.65625 0 Z M 4.625 -2.4375 L 3.40625 -5.3125 L 2.171875 -2.4375 Z M 4.625 -2.4375 "/></g></g></g><g fill="#272727" fill-opacity="1"><g transform="translate(233.268309, 238.491678)"><g><path d="M 5.296875 -3.1875 L 6.25 -3.1875 L 6.25 -0.796875 C 5.914062 -0.546875 5.519531 -0.34375 5.0625 -0.1875 C 4.601562 -0.03125 4.15625 0.046875 3.71875 0.046875 C 2.757812 0.046875 1.953125 -0.269531 1.296875 -0.90625 C 0.640625 -1.539062 0.3125 -2.320312 0.3125 -3.25 C 0.3125 -4.175781 0.644531 -4.953125 1.3125 -5.578125 C 1.976562 -6.203125 2.804688 -6.515625 3.796875 -6.515625 C 4.242188 -6.515625 4.6875 -6.429688 5.125 -6.265625 C 5.570312 -6.097656 5.957031 -5.878906 6.28125 -5.609375 L 5.65625 -4.796875 C 5.125 -5.296875 4.503906 -5.546875 3.796875 -5.546875 C 3.128906 -5.546875 2.566406 -5.320312 2.109375 -4.875 C 1.648438 -4.425781 1.421875 -3.882812 1.421875 -3.25 C 1.421875 -2.59375 1.648438 -2.039062 2.109375 -1.59375 C 2.578125 -1.15625 3.140625 -0.9375 3.796875 -0.9375 C 4.296875 -0.9375 4.796875 -1.082031 5.296875 -1.375 Z M 5.296875 -3.1875 "/></g></g></g><g fill="#272727" fill-opacity="1"><g transform="translate(241.824793, 238.491678)"><g><path d="M 5.484375 -5.5 L 1.953125 -5.5 L 1.953125 -3.75 L 5.109375 -3.75 L 5.109375 -2.765625 L 1.953125 -2.765625 L 1.953125 -0.984375 L 5.59375 -0.984375 L 5.59375 0 L 0.859375 0 L 0.859375 -6.484375 L 5.484375 -6.484375 Z M 5.484375 -5.5 "/></g></g></g><g fill="#272727" fill-opacity="1"><g transform="translate(249.51338, 238.491678)"><g/></g></g><g fill="#272727" fill-opacity="1"><g transform="translate(97.415734, 251.241677)"><g><path d="M 0.859375 -6.484375 L 3.4375 -6.484375 C 4.25 -6.484375 4.878906 -6.289062 5.328125 -5.90625 C 5.773438 -5.519531 6 -4.972656 6 -4.265625 C 6 -3.535156 5.773438 -2.96875 5.328125 -2.5625 C 4.878906 -2.15625 4.25 -1.953125 3.4375 -1.953125 L 1.953125 -1.953125 L 1.953125 0 L 0.859375 0 Z M 1.953125 -5.5 L 1.953125 -2.9375 L 3.390625 -2.9375 C 4.429688 -2.9375 4.953125 -3.375 4.953125 -4.25 C 4.953125 -5.082031 4.429688 -5.5 3.390625 -5.5 Z M 1.953125 -5.5 "/></g></g></g><g fill="#272727" fill-opacity="1"><g transform="translate(105.267731, 251.241677)"><g><path d="M 4.96875 0 L 3.78125 -1.96875 C 3.71875 -1.957031 3.617188 -1.953125 3.484375 -1.953125 L 1.953125 -1.953125 L 1.953125 0 L 0.859375 0 L 0.859375 -6.484375 L 3.484375 -6.484375 C 4.304688 -6.484375 4.945312 -6.289062 5.40625 -5.90625 C 5.863281 -5.519531 6.09375 -4.972656 6.09375 -4.265625 C 6.09375 -3.753906 5.976562 -3.316406 5.75 -2.953125 C 5.519531 -2.597656 5.1875 -2.335938 4.75 -2.171875 L 6.203125 0 Z M 1.953125 -2.9375 L 3.484375 -2.9375 C 4.535156 -2.9375 5.0625 -3.375 5.0625 -4.25 C 5.0625 -5.082031 4.535156 -5.5 3.484375 -5.5 L 1.953125 -5.5 Z M 1.953125 -2.9375 "/></g></g></g><g fill="#272727" fill-opacity="1"><g transform="translate(113.583214, 251.241677)"><g><path d="M 1.296875 -5.578125 C 1.960938 -6.203125 2.78125 -6.515625 3.75 -6.515625 C 4.71875 -6.515625 5.53125 -6.203125 6.1875 -5.578125 C 6.851562 -4.953125 7.1875 -4.175781 7.1875 -3.25 C 7.1875 -2.320312 6.851562 -1.539062 6.1875 -0.90625 C 5.53125 -0.269531 4.71875 0.046875 3.75 0.046875 C 2.78125 0.046875 1.960938 -0.269531 1.296875 -0.90625 C 0.640625 -1.539062 0.3125 -2.320312 0.3125 -3.25 C 0.3125 -4.175781 0.640625 -4.953125 1.296875 -5.578125 Z M 3.765625 -5.53125 C 3.117188 -5.53125 2.566406 -5.304688 2.109375 -4.859375 C 1.648438 -4.421875 1.421875 -3.878906 1.421875 -3.234375 C 1.421875 -2.597656 1.648438 -2.054688 2.109375 -1.609375 C 2.578125 -1.160156 3.128906 -0.9375 3.765625 -0.9375 C 4.398438 -0.9375 4.941406 -1.160156 5.390625 -1.609375 C 5.835938 -2.054688 6.0625 -2.597656 6.0625 -3.234375 C 6.0625 -3.878906 5.835938 -4.421875 5.390625 -4.859375 C 4.941406 -5.304688 4.398438 -5.53125 3.765625 -5.53125 Z M 3.765625 -5.53125 "/></g></g></g><g fill="#272727" fill-opacity="1"><g transform="translate(122.705141, 251.241677)"><g><path d="M 5.203125 -5.5 L 1.953125 -5.5 L 1.953125 -3.625 L 4.890625 -3.625 L 4.890625 -2.65625 L 1.953125 -2.65625 L 1.953125 0 L 0.859375 0 L 0.859375 -6.484375 L 5.203125 -6.484375 Z M 5.203125 -5.5 "/></g></g></g><g fill="#272727" fill-opacity="1"><g transform="translate(129.648728, 251.241677)"><g><path d="M 5.484375 -5.5 L 1.953125 -5.5 L 1.953125 -3.75 L 5.109375 -3.75 L 5.109375 -2.765625 L 1.953125 -2.765625 L 1.953125 -0.984375 L 5.59375 -0.984375 L 5.59375 0 L 0.859375 0 L 0.859375 -6.484375 L 5.484375 -6.484375 Z M 5.484375 -5.5 "/></g></g></g><g fill="#272727" fill-opacity="1"><g transform="translate(137.343152, 251.241677)"><g><path d="M 2.984375 -6.53125 C 3.828125 -6.53125 4.582031 -6.304688 5.25 -5.859375 L 4.796875 -4.90625 C 4.140625 -5.300781 3.507812 -5.5 2.90625 -5.5 C 2.570312 -5.5 2.3125 -5.441406 2.125 -5.328125 C 1.9375 -5.210938 1.84375 -5.046875 1.84375 -4.828125 C 1.84375 -4.609375 1.925781 -4.421875 2.09375 -4.265625 C 2.269531 -4.117188 2.488281 -4.007812 2.75 -3.9375 C 3.007812 -3.875 3.289062 -3.785156 3.59375 -3.671875 C 3.894531 -3.566406 4.175781 -3.453125 4.4375 -3.328125 C 4.695312 -3.210938 4.910156 -3.023438 5.078125 -2.765625 C 5.253906 -2.503906 5.34375 -2.191406 5.34375 -1.828125 C 5.34375 -1.265625 5.113281 -0.8125 4.65625 -0.46875 C 4.195312 -0.132812 3.609375 0.03125 2.890625 0.03125 C 2.398438 0.03125 1.921875 -0.0546875 1.453125 -0.234375 C 0.992188 -0.421875 0.585938 -0.671875 0.234375 -0.984375 L 0.71875 -1.9375 C 1.039062 -1.632812 1.394531 -1.398438 1.78125 -1.234375 C 2.175781 -1.066406 2.550781 -0.984375 2.90625 -0.984375 C 3.289062 -0.984375 3.585938 -1.050781 3.796875 -1.1875 C 4.015625 -1.332031 4.125 -1.53125 4.125 -1.78125 C 4.125 -2 4.035156 -2.179688 3.859375 -2.328125 C 3.691406 -2.484375 3.476562 -2.597656 3.21875 -2.671875 C 2.957031 -2.742188 2.675781 -2.828125 2.375 -2.921875 C 2.070312 -3.023438 1.789062 -3.132812 1.53125 -3.25 C 1.269531 -3.363281 1.050781 -3.546875 0.875 -3.796875 C 0.707031 -4.054688 0.625 -4.363281 0.625 -4.71875 C 0.625 -5.269531 0.835938 -5.707031 1.265625 -6.03125 C 1.703125 -6.363281 2.273438 -6.53125 2.984375 -6.53125 Z M 2.984375 -6.53125 "/></g></g></g><g fill="#272727" fill-opacity="1"><g transform="translate(144.722405, 251.241677)"><g><path d="M 2.984375 -6.53125 C 3.828125 -6.53125 4.582031 -6.304688 5.25 -5.859375 L 4.796875 -4.90625 C 4.140625 -5.300781 3.507812 -5.5 2.90625 -5.5 C 2.570312 -5.5 2.3125 -5.441406 2.125 -5.328125 C 1.9375 -5.210938 1.84375 -5.046875 1.84375 -4.828125 C 1.84375 -4.609375 1.925781 -4.421875 2.09375 -4.265625 C 2.269531 -4.117188 2.488281 -4.007812 2.75 -3.9375 C 3.007812 -3.875 3.289062 -3.785156 3.59375 -3.671875 C 3.894531 -3.566406 4.175781 -3.453125 4.4375 -3.328125 C 4.695312 -3.210938 4.910156 -3.023438 5.078125 -2.765625 C 5.253906 -2.503906 5.34375 -2.191406 5.34375 -1.828125 C 5.34375 -1.265625 5.113281 -0.8125 4.65625 -0.46875 C 4.195312 -0.132812 3.609375 0.03125 2.890625 0.03125 C 2.398438 0.03125 1.921875 -0.0546875 1.453125 -0.234375 C 0.992188 -0.421875 0.585938 -0.671875 0.234375 -0.984375 L 0.71875 -1.9375 C 1.039062 -1.632812 1.394531 -1.398438 1.78125 -1.234375 C 2.175781 -1.066406 2.550781 -0.984375 2.90625 -0.984375 C 3.289062 -0.984375 3.585938 -1.050781 3.796875 -1.1875 C 4.015625 -1.332031 4.125 -1.53125 4.125 -1.78125 C 4.125 -2 4.035156 -2.179688 3.859375 -2.328125 C 3.691406 -2.484375 3.476562 -2.597656 3.21875 -2.671875 C 2.957031 -2.742188 2.675781 -2.828125 2.375 -2.921875 C 2.070312 -3.023438 1.789062 -3.132812 1.53125 -3.25 C 1.269531 -3.363281 1.050781 -3.546875 0.875 -3.796875 C 0.707031 -4.054688 0.625 -4.363281 0.625 -4.71875 C 0.625 -5.269531 0.835938 -5.707031 1.265625 -6.03125 C 1.703125 -6.363281 2.273438 -6.53125 2.984375 -6.53125 Z M 2.984375 -6.53125 "/></g></g></g><g fill="#272727" fill-opacity="1"><g transform="translate(152.10166, 251.241677)"><g><path d="M 1.953125 0 L 0.859375 0 L 0.859375 -6.484375 L 1.953125 -6.484375 Z M 1.953125 0 "/></g></g></g><g fill="#272727" fill-opacity="1"><g transform="translate(156.514662, 251.241677)"><g><path d="M 1.296875 -5.578125 C 1.960938 -6.203125 2.78125 -6.515625 3.75 -6.515625 C 4.71875 -6.515625 5.53125 -6.203125 6.1875 -5.578125 C 6.851562 -4.953125 7.1875 -4.175781 7.1875 -3.25 C 7.1875 -2.320312 6.851562 -1.539062 6.1875 -0.90625 C 5.53125 -0.269531 4.71875 0.046875 3.75 0.046875 C 2.78125 0.046875 1.960938 -0.269531 1.296875 -0.90625 C 0.640625 -1.539062 0.3125 -2.320312 0.3125 -3.25 C 0.3125 -4.175781 0.640625 -4.953125 1.296875 -5.578125 Z M 3.765625 -5.53125 C 3.117188 -5.53125 2.566406 -5.304688 2.109375 -4.859375 C 1.648438 -4.421875 1.421875 -3.878906 1.421875 -3.234375 C 1.421875 -2.597656 1.648438 -2.054688 2.109375 -1.609375 C 2.578125 -1.160156 3.128906 -0.9375 3.765625 -0.9375 C 4.398438 -0.9375 4.941406 -1.160156 5.390625 -1.609375 C 5.835938 -2.054688 6.0625 -2.597656 6.0625 -3.234375 C 6.0625 -3.878906 5.835938 -4.421875 5.390625 -4.859375 C 4.941406 -5.304688 4.398438 -5.53125 3.765625 -5.53125 Z M 3.765625 -5.53125 "/></g></g></g><g fill="#272727" fill-opacity="1"><g transform="translate(165.636587, 251.241677)"><g><path d="M 6.484375 0 L 5.40625 0 L 1.953125 -4.65625 L 1.953125 0 L 0.859375 0 L 0.859375 -6.484375 L 1.921875 -6.484375 L 5.40625 -1.828125 L 5.40625 -6.484375 L 6.484375 -6.484375 Z M 6.484375 0 "/></g></g></g><g fill="#272727" fill-opacity="1"><g transform="translate(174.591668, 251.241677)"><g><path d="M 5.046875 -1.46875 L 1.765625 -1.46875 L 1.15625 0 L 0.015625 0 L 2.875 -6.484375 L 4 -6.484375 L 6.828125 0 L 5.65625 0 Z M 4.625 -2.4375 L 3.40625 -5.3125 L 2.171875 -2.4375 Z M 4.625 -2.4375 "/></g></g></g><g fill="#272727" fill-opacity="1"><g transform="translate(183.046185, 251.241677)"><g><path d="M 1.953125 -0.984375 L 4.75 -0.984375 L 4.75 0 L 0.859375 0 L 0.859375 -6.484375 L 1.953125 -6.484375 Z M 1.953125 -0.984375 "/></g></g></g><g fill="#272727" fill-opacity="1"><g transform="translate(189.609726, 251.241677)"><g/></g></g><g fill="#272727" fill-opacity="1"><g transform="translate(193.614877, 251.241677)"><g><path d="M 0.859375 -6.484375 L 3.515625 -6.484375 C 4.484375 -6.484375 5.28125 -6.175781 5.90625 -5.5625 C 6.539062 -4.957031 6.859375 -4.179688 6.859375 -3.234375 C 6.859375 -2.296875 6.539062 -1.519531 5.90625 -0.90625 C 5.269531 -0.300781 4.460938 0 3.484375 0 L 0.859375 0 Z M 1.953125 -5.5 L 1.953125 -0.984375 L 3.546875 -0.984375 C 4.179688 -0.984375 4.707031 -1.191406 5.125 -1.609375 C 5.550781 -2.035156 5.765625 -2.578125 5.765625 -3.234375 C 5.765625 -3.890625 5.546875 -4.429688 5.109375 -4.859375 C 4.671875 -5.285156 4.132812 -5.5 3.5 -5.5 Z M 1.953125 -5.5 "/></g></g></g><g fill="#272727" fill-opacity="1"><g transform="translate(202.412374, 251.241677)"><g><path d="M 5.484375 -5.5 L 1.953125 -5.5 L 1.953125 -3.75 L 5.109375 -3.75 L 5.109375 -2.765625 L 1.953125 -2.765625 L 1.953125 -0.984375 L 5.59375 -0.984375 L 5.59375 0 L 0.859375 0 L 0.859375 -6.484375 L 5.484375 -6.484375 Z M 5.484375 -5.5 "/></g></g></g><g fill="#272727" fill-opacity="1"><g transform="translate(210.106797, 251.241677)"><g><path d="M 3.75 0 L 2.609375 0 L 0.03125 -6.484375 L 1.203125 -6.484375 L 3.203125 -1.21875 L 5.21875 -6.484375 L 6.359375 -6.484375 Z M 3.75 0 "/></g></g></g><g fill="#272727" fill-opacity="1"><g transform="translate(218.116379, 251.241677)"><g><path d="M 5.484375 -5.5 L 1.953125 -5.5 L 1.953125 -3.75 L 5.109375 -3.75 L 5.109375 -2.765625 L 1.953125 -2.765625 L 1.953125 -0.984375 L 5.59375 -0.984375 L 5.59375 0 L 0.859375 0 L 0.859375 -6.484375 L 5.484375 -6.484375 Z M 5.484375 -5.5 "/></g></g></g><g fill="#272727" fill-opacity="1"><g transform="translate(225.810802, 251.241677)"><g><path d="M 1.953125 -0.984375 L 4.75 -0.984375 L 4.75 0 L 0.859375 0 L 0.859375 -6.484375 L 1.953125 -6.484375 Z M 1.953125 -0.984375 "/></g></g></g><g fill="#272727" fill-opacity="1"><g transform="translate(232.374343, 251.241677)"><g><path d="M 1.296875 -5.578125 C 1.960938 -6.203125 2.78125 -6.515625 3.75 -6.515625 C 4.71875 -6.515625 5.53125 -6.203125 6.1875 -5.578125 C 6.851562 -4.953125 7.1875 -4.175781 7.1875 -3.25 C 7.1875 -2.320312 6.851562 -1.539062 6.1875 -0.90625 C 5.53125 -0.269531 4.71875 0.046875 3.75 0.046875 C 2.78125 0.046875 1.960938 -0.269531 1.296875 -0.90625 C 0.640625 -1.539062 0.3125 -2.320312 0.3125 -3.25 C 0.3125 -4.175781 0.640625 -4.953125 1.296875 -5.578125 Z M 3.765625 -5.53125 C 3.117188 -5.53125 2.566406 -5.304688 2.109375 -4.859375 C 1.648438 -4.421875 1.421875 -3.878906 1.421875 -3.234375 C 1.421875 -2.597656 1.648438 -2.054688 2.109375 -1.609375 C 2.578125 -1.160156 3.128906 -0.9375 3.765625 -0.9375 C 4.398438 -0.9375 4.941406 -1.160156 5.390625 -1.609375 C 5.835938 -2.054688 6.0625 -2.597656 6.0625 -3.234375 C 6.0625 -3.878906 5.835938 -4.421875 5.390625 -4.859375 C 4.941406 -5.304688 4.398438 -5.53125 3.765625 -5.53125 Z M 3.765625 -5.53125 "/></g></g></g><g fill="#272727" fill-opacity="1"><g transform="translate(241.496268, 251.241677)"><g><path d="M 0.859375 -6.484375 L 3.4375 -6.484375 C 4.25 -6.484375 4.878906 -6.289062 5.328125 -5.90625 C 5.773438 -5.519531 6 -4.972656 6 -4.265625 C 6 -3.535156 5.773438 -2.96875 5.328125 -2.5625 C 4.878906 -2.15625 4.25 -1.953125 3.4375 -1.953125 L 1.953125 -1.953125 L 1.953125 0 L 0.859375 0 Z M 1.953125 -5.5 L 1.953125 -2.9375 L 3.390625 -2.9375 C 4.429688 -2.9375 4.953125 -3.375 4.953125 -4.25 C 4.953125 -5.082031 4.429688 -5.5 3.390625 -5.5 Z M 1.953125 -5.5 "/></g></g></g><g fill="#272727" fill-opacity="1"><g transform="translate(249.348264, 251.241677)"><g><path d="M 7.703125 0 L 6.703125 0 L 6.6875 -4.84375 L 4.640625 -0.671875 L 3.921875 -0.671875 L 1.875 -4.84375 L 1.875 0 L 0.859375 0 L 0.859375 -6.484375 L 2.15625 -6.484375 L 4.296875 -2.171875 L 6.421875 -6.484375 L 7.703125 -6.484375 Z M 7.703125 0 "/></g></g></g><g fill="#272727" fill-opacity="1"><g transform="translate(259.536195, 251.241677)"><g><path d="M 5.484375 -5.5 L 1.953125 -5.5 L 1.953125 -3.75 L 5.109375 -3.75 L 5.109375 -2.765625 L 1.953125 -2.765625 L 1.953125 -0.984375 L 5.59375 -0.984375 L 5.59375 0 L 0.859375 0 L 0.859375 -6.484375 L 5.484375 -6.484375 Z M 5.484375 -5.5 "/></g></g></g><g fill="#272727" fill-opacity="1"><g transform="translate(267.230618, 251.241677)"><g><path d="M 6.484375 0 L 5.40625 0 L 1.953125 -4.65625 L 1.953125 0 L 0.859375 0 L 0.859375 -6.484375 L 1.921875 -6.484375 L 5.40625 -1.828125 L 5.40625 -6.484375 L 6.484375 -6.484375 Z M 6.484375 0 "/></g></g></g><g fill="#272727" fill-opacity="1"><g transform="translate(276.185699, 251.241677)"><g><path d="M 5.28125 -5.5 L 3.21875 -5.5 L 3.21875 0 L 2.125 0 L 2.125 -5.5 L 0.078125 -5.5 L 0.078125 -6.484375 L 5.28125 -6.484375 Z M 5.28125 -5.5 "/></g></g></g><g fill="#272727" fill-opacity="1"><g transform="translate(112.504347, 221.486426)"><g><path d="M 4.328125 0.25 C 3.015625 0.25 2.359375 -0.425781 2.359375 -1.78125 L 2.359375 -19.84375 C 2.359375 -21.195312 3.015625 -21.875 4.328125 -21.875 C 5.628906 -21.875 6.28125 -21.195312 6.28125 -19.84375 L 6.28125 -1.78125 C 6.28125 -0.425781 5.628906 0.25 4.328125 0.25 Z M 4.328125 0.25 "/></g></g></g><g fill="#272727" fill-opacity="1"><g transform="translate(124.646219, 221.486426)"><g><path d="M 4.203125 0.25 C 2.972656 0.25 2.359375 -0.382812 2.359375 -1.65625 L 2.359375 -19.90625 C 2.359375 -20.539062 2.515625 -21.023438 2.828125 -21.359375 C 3.148438 -21.703125 3.566406 -21.875 4.078125 -21.875 C 4.546875 -21.875 4.894531 -21.785156 5.125 -21.609375 C 5.363281 -21.429688 5.648438 -21.140625 5.984375 -20.734375 L 16.9375 -6.53125 L 16.9375 -20 C 16.9375 -21.25 17.546875 -21.875 18.765625 -21.875 C 19.972656 -21.875 20.578125 -21.25 20.578125 -20 L 20.578125 -1.59375 C 20.578125 -1.019531 20.429688 -0.566406 20.140625 -0.234375 C 19.859375 0.0859375 19.472656 0.25 18.984375 0.25 C 18.515625 0.25 18.140625 0.15625 17.859375 -0.03125 C 17.585938 -0.21875 17.289062 -0.515625 16.96875 -0.921875 L 6.015625 -15.15625 L 6.015625 -1.65625 C 6.015625 -0.382812 5.410156 0.25 4.203125 0.25 Z M 4.203125 0.25 "/></g></g></g><g fill="#272727" fill-opacity="1"><g transform="translate(151.073887, 221.486426)"><g><path d="M 12.765625 0.3125 C 10.367188 0.3125 8.347656 -0.132812 6.703125 -1.03125 C 5.054688 -1.9375 3.800781 -3.21875 2.9375 -4.875 C 2.082031 -6.53125 1.65625 -8.492188 1.65625 -10.765625 C 1.65625 -13.054688 2.09375 -15.035156 2.96875 -16.703125 C 3.851562 -18.367188 5.125 -19.65625 6.78125 -20.5625 C 8.4375 -21.476562 10.421875 -21.9375 12.734375 -21.9375 C 13.878906 -21.9375 15.023438 -21.796875 16.171875 -21.515625 C 17.328125 -21.242188 18.421875 -20.78125 19.453125 -20.125 C 19.898438 -19.851562 20.15625 -19.5 20.21875 -19.0625 C 20.289062 -18.625 20.222656 -18.207031 20.015625 -17.8125 C 19.816406 -17.425781 19.515625 -17.15625 19.109375 -17 C 18.703125 -16.851562 18.253906 -16.921875 17.765625 -17.203125 C 16.984375 -17.648438 16.191406 -17.976562 15.390625 -18.1875 C 14.597656 -18.394531 13.710938 -18.5 12.734375 -18.5 C 10.441406 -18.5 8.707031 -17.832031 7.53125 -16.5 C 6.351562 -15.164062 5.765625 -13.253906 5.765625 -10.765625 C 5.765625 -8.253906 6.367188 -6.34375 7.578125 -5.03125 C 8.785156 -3.71875 10.570312 -3.0625 12.9375 -3.0625 C 13.613281 -3.0625 14.304688 -3.117188 15.015625 -3.234375 C 15.722656 -3.347656 16.421875 -3.515625 17.109375 -3.734375 L 17.109375 -8.765625 L 13.734375 -8.765625 C 12.671875 -8.765625 12.140625 -9.257812 12.140625 -10.25 C 12.140625 -11.207031 12.671875 -11.6875 13.734375 -11.6875 L 18.796875 -11.6875 C 19.859375 -11.6875 20.390625 -11.15625 20.390625 -10.09375 L 20.390625 -2.640625 C 20.390625 -1.703125 20.023438 -1.097656 19.296875 -0.828125 C 18.390625 -0.503906 17.351562 -0.234375 16.1875 -0.015625 C 15.03125 0.203125 13.890625 0.3125 12.765625 0.3125 Z M 12.765625 0.3125 "/></g></g></g><g fill="#272727" fill-opacity="1"><g transform="translate(177.133684, 221.486426)"><g><path d="M 4.359375 0 C 3.023438 0 2.359375 -0.675781 2.359375 -2.03125 L 2.359375 -19.71875 C 2.359375 -21.050781 3.015625 -21.71875 4.328125 -21.71875 C 5.628906 -21.71875 6.28125 -21.050781 6.28125 -19.71875 L 6.28125 -3.34375 L 15.1875 -3.34375 C 16.332031 -3.34375 16.90625 -2.789062 16.90625 -1.6875 C 16.90625 -0.5625 16.332031 0 15.1875 0 Z M 4.359375 0 "/></g></g></g><g fill="#272727" fill-opacity="1"><g transform="translate(197.859299, 221.486426)"><g><path d="M 4.453125 0 C 3.054688 0 2.359375 -0.691406 2.359375 -2.078125 L 2.359375 -19.53125 C 2.359375 -20.925781 3.054688 -21.625 4.453125 -21.625 L 15.390625 -21.625 C 16.460938 -21.625 17 -21.113281 17 -20.09375 C 17 -19.03125 16.460938 -18.5 15.390625 -18.5 L 6.140625 -18.5 L 6.140625 -12.546875 L 14.71875 -12.546875 C 15.78125 -12.546875 16.3125 -12.023438 16.3125 -10.984375 C 16.3125 -9.941406 15.78125 -9.421875 14.71875 -9.421875 L 6.140625 -9.421875 L 6.140625 -3.125 L 15.390625 -3.125 C 16.460938 -3.125 17 -2.601562 17 -1.5625 C 17 -0.519531 16.460938 0 15.390625 0 Z M 4.453125 0 "/></g></g></g><g fill="#272727" fill-opacity="1"><g transform="translate(219.657878, 221.486426)"><g><path d="M 9.8125 0.3125 C 8.445312 0.3125 7.113281 0.160156 5.8125 -0.140625 C 4.507812 -0.453125 3.378906 -0.914062 2.421875 -1.53125 C 1.953125 -1.84375 1.664062 -2.222656 1.5625 -2.671875 C 1.457031 -3.117188 1.492188 -3.539062 1.671875 -3.9375 C 1.847656 -4.34375 2.125 -4.617188 2.5 -4.765625 C 2.875 -4.921875 3.304688 -4.847656 3.796875 -4.546875 C 4.703125 -4.003906 5.65625 -3.609375 6.65625 -3.359375 C 7.65625 -3.117188 8.707031 -3 9.8125 -3 C 11.425781 -3 12.601562 -3.269531 13.34375 -3.8125 C 14.082031 -4.351562 14.453125 -5.054688 14.453125 -5.921875 C 14.453125 -6.640625 14.1875 -7.203125 13.65625 -7.609375 C 13.132812 -8.015625 12.242188 -8.351562 10.984375 -8.625 L 7.609375 -9.328125 C 3.765625 -10.140625 1.84375 -12.113281 1.84375 -15.25 C 1.84375 -16.59375 2.195312 -17.765625 2.90625 -18.765625 C 3.625 -19.773438 4.617188 -20.554688 5.890625 -21.109375 C 7.160156 -21.660156 8.625 -21.9375 10.28125 -21.9375 C 11.5 -21.9375 12.660156 -21.78125 13.765625 -21.46875 C 14.867188 -21.164062 15.863281 -20.71875 16.75 -20.125 C 17.15625 -19.832031 17.398438 -19.476562 17.484375 -19.0625 C 17.566406 -18.644531 17.515625 -18.253906 17.328125 -17.890625 C 17.140625 -17.535156 16.847656 -17.289062 16.453125 -17.15625 C 16.054688 -17.03125 15.59375 -17.117188 15.0625 -17.421875 C 14.300781 -17.847656 13.53125 -18.15625 12.75 -18.34375 C 11.976562 -18.53125 11.144531 -18.625 10.25 -18.625 C 8.832031 -18.625 7.722656 -18.328125 6.921875 -17.734375 C 6.128906 -17.140625 5.734375 -16.359375 5.734375 -15.390625 C 5.734375 -14.660156 5.976562 -14.070312 6.46875 -13.625 C 6.957031 -13.1875 7.796875 -12.847656 8.984375 -12.609375 L 12.328125 -11.90625 C 14.347656 -11.46875 15.851562 -10.789062 16.84375 -9.875 C 17.84375 -8.957031 18.34375 -7.734375 18.34375 -6.203125 C 18.34375 -4.910156 17.992188 -3.769531 17.296875 -2.78125 C 16.597656 -1.800781 15.609375 -1.039062 14.328125 -0.5 C 13.054688 0.0390625 11.550781 0.3125 9.8125 0.3125 Z M 9.8125 0.3125 "/></g></g></g><g fill="#272727" fill-opacity="1"><g transform="translate(242.498774, 221.486426)"><g><path d="M 4.328125 0.25 C 3.015625 0.25 2.359375 -0.425781 2.359375 -1.78125 L 2.359375 -19.625 C 2.359375 -20.957031 3.023438 -21.625 4.359375 -21.625 L 11.75 -21.625 C 14.125 -21.625 15.953125 -21.03125 17.234375 -19.84375 C 18.523438 -18.65625 19.171875 -17 19.171875 -14.875 C 19.171875 -12.75 18.523438 -11.085938 17.234375 -9.890625 C 15.953125 -8.691406 14.125 -8.09375 11.75 -8.09375 L 6.28125 -8.09375 L 6.28125 -1.78125 C 6.28125 -0.425781 5.628906 0.25 4.328125 0.25 Z M 6.28125 -11.1875 L 11.140625 -11.1875 C 13.953125 -11.1875 15.359375 -12.414062 15.359375 -14.875 C 15.359375 -17.3125 13.953125 -18.53125 11.140625 -18.53125 L 6.28125 -18.53125 Z M 6.28125 -11.1875 "/></g></g></g><g clip-path="url(#da959a3291)"><path fill="#42a5f5" d="M 203.109375 120.09375 L 151.75 120.09375 C 151.515625 120.09375 151.296875 120.140625 151.101562 120.21875 C 150.898438 120.304688 150.710938 120.433594 150.546875 120.597656 C 150.386719 120.757812 150.257812 120.949219 150.171875 121.152344 C 150.09375 121.347656 150.046875 121.566406 150.046875 121.800781 L 150.046875 147.726562 C 150.046875 147.960938 150.09375 148.179688 150.171875 148.375 C 150.257812 148.578125 150.386719 148.765625 150.546875 148.929688 C 150.710938 149.09375 150.898438 149.222656 151.101562 149.304688 C 151.296875 149.386719 151.515625 149.429688 151.75 149.429688 L 156.273438 149.429688 L 156.757812 150.613281 L 161.3125 161.785156 L 166.597656 150.523438 L 167.109375 149.429688 L 203.109375 149.429688 C 203.578125 149.429688 204.003906 149.238281 204.3125 148.929688 C 204.472656 148.765625 204.601562 148.578125 204.6875 148.375 C 204.769531 148.179688 204.8125 147.960938 204.8125 147.726562 L 204.8125 121.800781 C 204.8125 121.566406 204.769531 121.347656 204.6875 121.152344 C 204.601562 120.949219 204.472656 120.757812 204.3125 120.597656 C 204.148438 120.433594 203.960938 120.304688 203.757812 120.21875 C 203.5625 120.140625 203.34375 120.09375 203.109375 120.09375 " fill-opacity="1" fill-rule="nonzero"/></g><path fill="#1976d2" d="M 176.042969 125.976562 L 176.042969 124.179688 L 178.816406 124.179688 L 178.816406 125.976562 L 185.472656 125.976562 L 185.472656 128.882812 L 184.152344 128.882812 L 184.121094 129.160156 C 183.730469 132.53125 181.765625 135.65625 179.605469 138.1875 L 179.421875 138.402344 L 179.613281 138.605469 C 180.625 139.699219 181.863281 140.65625 183.121094 141.449219 L 183.539062 141.710938 L 182.488281 144.285156 L 181.878906 143.835938 C 181.265625 143.382812 180.660156 142.917969 180.0625 142.445312 C 179.316406 141.847656 178.546875 141.242188 177.886719 140.550781 L 177.667969 140.324219 L 177.4375 140.542969 C 175.785156 142.128906 173.972656 143.597656 172.066406 144.867188 L 171.558594 145.207031 L 170.160156 142.964844 L 170.632812 142.644531 C 172.476562 141.398438 174.238281 139.957031 175.832031 138.40625 L 176.023438 138.21875 L 175.875 138 C 174.511719 135.984375 173.40625 133.707031 172.648438 131.394531 L 172.394531 130.621094 L 175.175781 130.621094 L 175.316406 131.011719 C 175.917969 132.691406 176.695312 134.324219 177.640625 135.839844 L 177.875 136.214844 L 178.152344 135.871094 C 179.683594 133.972656 181.054688 131.6875 181.4375 129.246094 L 181.492188 128.882812 L 169.386719 128.882812 L 169.386719 125.976562 L 176.042969 125.976562 " fill-opacity="1" fill-rule="nonzero"/><g clip-path="url(#d60920ec65)"><path fill="#e53935" d="M 169.285156 187.585938 L 223.085938 187.585938 C 223.34375 187.585938 223.585938 187.535156 223.800781 187.449219 C 224.023438 187.351562 224.230469 187.210938 224.410156 187.035156 C 224.585938 186.855469 224.730469 186.648438 224.824219 186.421875 C 224.910156 186.207031 224.960938 185.96875 224.960938 185.707031 L 224.960938 158.550781 C 224.960938 158.292969 224.910156 158.050781 224.824219 157.835938 C 224.730469 157.609375 224.585938 157.402344 224.410156 157.226562 C 224.230469 157.046875 224.023438 156.90625 223.800781 156.8125 C 223.585938 156.722656 223.34375 156.675781 223.085938 156.675781 L 218.40625 156.675781 L 217.925781 155.492188 L 213.078125 143.597656 L 207.453125 155.582031 L 206.941406 156.675781 L 169.285156 156.675781 C 169.023438 156.675781 168.785156 156.722656 168.570312 156.8125 C 168.34375 156.90625 168.136719 157.046875 167.960938 157.226562 C 167.78125 157.402344 167.640625 157.609375 167.546875 157.835938 C 167.457031 158.050781 167.410156 158.292969 167.410156 158.550781 L 167.410156 185.707031 C 167.410156 185.96875 167.457031 186.207031 167.546875 186.421875 C 167.640625 186.648438 167.78125 186.855469 167.960938 187.035156 C 168.136719 187.210938 168.34375 187.351562 168.570312 187.449219 C 168.785156 187.535156 169.023438 187.585938 169.285156 187.585938 " fill-opacity="1" fill-rule="nonzero"/></g><path fill="#b71c1c" d="M 200.003906 176.117188 L 192.246094 176.117188 L 189.578125 183.917969 L 186.4375 183.917969 L 194.789062 159.964844 L 197.546875 159.964844 L 205.898438 183.917969 L 202.699219 183.917969 Z M 193.132812 173.4375 L 199.109375 173.4375 L 196.808594 166.871094 C 196.550781 166.132812 196.34375 165.378906 196.132812 164.621094 C 196.132812 164.621094 196.132812 164.621094 196.132812 164.617188 C 196.132812 164.621094 196.132812 164.628906 196.128906 164.632812 C 195.925781 165.34375 195.710938 166.050781 195.464844 166.75 L 193.132812 173.4375 " fill-opacity="1" fill-rule="nonzero"/></svg>